<?xml version="1.0" encoding="iso-8859-1"?>
<!-- Generator: Adobe Illustrator 26.2.1, SVG Export Plug-In . SVG Version: 6.00 Build 0)  -->
<svg version="1.1" xmlns="http://www.w3.org/2000/svg" xmlns:xlink="http://www.w3.org/1999/xlink" x="0px" y="0px"
	 viewBox="0 0 16 16" style="enable-background:new 0 0 16 16;" xml:space="preserve">
<g id="WIP" style="display:none;">
</g>
<g id="Icons">
	<path style="fill:#161618;" d="M8,2C4.686,2,2,4.686,2,8s2.686,6,6,6s6-2.686,6-6S11.314,2,8,2z M7.333,11.435
		c-1.379-0.261-2.506-1.389-2.767-2.767C4.225,6.872,5.252,5.281,6.778,4.703C6.86,4.672,6.893,4.712,6.853,4.79
		c-0.57,1.136-0.328,2.624,0.702,3.654c1.03,1.03,2.518,1.272,3.654,0.702c0.078-0.039,0.118-0.007,0.087,0.075
		C10.719,10.748,9.129,11.775,7.333,11.435z"/>
</g>
<g id="Set_Names" style="display:none;">
</g>
<g id="ARTBOARD_x5F_LABELS" style="display:none;">
</g>
</svg>
