<?xml version="1.0" encoding="iso-8859-1"?>
<!-- Generator: Adobe Illustrator 26.2.1, SVG Export Plug-In . SVG Version: 6.00 Build 0)  -->
<svg version="1.1" xmlns="http://www.w3.org/2000/svg" xmlns:xlink="http://www.w3.org/1999/xlink" x="0px" y="0px"
	 viewBox="0 0 16 16" style="enable-background:new 0 0 16 16;" xml:space="preserve">
<g id="WIP" style="display:none;">
</g>
<g id="Icons">
	<path style="fill:#161617;" d="M3,5.975v0.05c0,1.582,1.245,2.867,2.805,2.957L5.804,8.967L5.061,7.491l4.05,2.023l-4.05,2.027
		l0.781-1.554C3.713,9.914,2,8.171,2,6.025v-0.05C2,3.78,3.78,2,5.975,2H9v1H5.975C4.332,3,3,4.332,3,5.975z M8,5v2h6V5H8z M8,13h6
		v-2H8V13z M11,10h3V8h-3V10z"/>
</g>
<g id="Set_Names" style="display:none;">
</g>
<g id="ARTBOARD_x5F_LABELS" style="display:none;">
</g>
</svg>
